<mxfile host="app.diagrams.net" modified="2020-09-08T21:48:58.038Z" agent="5.0 (Windows NT 10.0; Win64; x64) AppleWebKit/537.36 (KHTML, like Gecko) Chrome/85.0.4183.83 Safari/537.36 Edg/85.0.564.44" etag="VYKuSLcxRfImVHUud3nS" version="13.6.9" type="github">
  <diagram id="f0ws_4bUApdIGFK3Kb4V" name="Page-1">
    <mxGraphModel dx="455" dy="455" grid="1" gridSize="10" guides="1" tooltips="1" connect="1" arrows="1" fold="1" page="1" pageScale="1" pageWidth="850" pageHeight="1100" math="0" shadow="0">
      <root>
        <mxCell id="0" />
        <mxCell id="1" parent="0" />
        <mxCell id="nLM1svQvnnnzhq0ErCaE-3" value="" style="edgeStyle=orthogonalEdgeStyle;rounded=0;orthogonalLoop=1;jettySize=auto;html=1;" edge="1" parent="1" source="nLM1svQvnnnzhq0ErCaE-1" target="nLM1svQvnnnzhq0ErCaE-2">
          <mxGeometry relative="1" as="geometry" />
        </mxCell>
        <mxCell id="nLM1svQvnnnzhq0ErCaE-1" value="Begin" style="ellipse;whiteSpace=wrap;html=1;" vertex="1" parent="1">
          <mxGeometry x="365" width="120" height="80" as="geometry" />
        </mxCell>
        <mxCell id="nLM1svQvnnnzhq0ErCaE-5" value="" style="edgeStyle=orthogonalEdgeStyle;rounded=0;orthogonalLoop=1;jettySize=auto;html=1;" edge="1" parent="1" source="nLM1svQvnnnzhq0ErCaE-2" target="nLM1svQvnnnzhq0ErCaE-4">
          <mxGeometry relative="1" as="geometry" />
        </mxCell>
        <mxCell id="nLM1svQvnnnzhq0ErCaE-2" value="Input currentYear" style="shape=parallelogram;perimeter=parallelogramPerimeter;whiteSpace=wrap;html=1;fixedSize=1;" vertex="1" parent="1">
          <mxGeometry x="365" y="110" width="120" height="60" as="geometry" />
        </mxCell>
        <mxCell id="nLM1svQvnnnzhq0ErCaE-7" value="" style="edgeStyle=orthogonalEdgeStyle;rounded=0;orthogonalLoop=1;jettySize=auto;html=1;" edge="1" parent="1" source="nLM1svQvnnnzhq0ErCaE-4" target="nLM1svQvnnnzhq0ErCaE-6">
          <mxGeometry relative="1" as="geometry" />
        </mxCell>
        <mxCell id="nLM1svQvnnnzhq0ErCaE-4" value="Input birthYear" style="shape=parallelogram;perimeter=parallelogramPerimeter;whiteSpace=wrap;html=1;fixedSize=1;" vertex="1" parent="1">
          <mxGeometry x="365" y="200" width="120" height="60" as="geometry" />
        </mxCell>
        <mxCell id="nLM1svQvnnnzhq0ErCaE-9" value="" style="edgeStyle=orthogonalEdgeStyle;rounded=0;orthogonalLoop=1;jettySize=auto;html=1;" edge="1" parent="1" source="nLM1svQvnnnzhq0ErCaE-6" target="nLM1svQvnnnzhq0ErCaE-8">
          <mxGeometry relative="1" as="geometry" />
        </mxCell>
        <mxCell id="nLM1svQvnnnzhq0ErCaE-6" value="age = birthYear - currentYear" style="whiteSpace=wrap;html=1;" vertex="1" parent="1">
          <mxGeometry x="343" y="290" width="165" height="60" as="geometry" />
        </mxCell>
        <mxCell id="nLM1svQvnnnzhq0ErCaE-11" value="" style="edgeStyle=orthogonalEdgeStyle;rounded=0;orthogonalLoop=1;jettySize=auto;html=1;" edge="1" parent="1" source="nLM1svQvnnnzhq0ErCaE-8" target="nLM1svQvnnnzhq0ErCaE-10">
          <mxGeometry relative="1" as="geometry" />
        </mxCell>
        <mxCell id="nLM1svQvnnnzhq0ErCaE-8" value="Output age" style="shape=parallelogram;perimeter=parallelogramPerimeter;whiteSpace=wrap;html=1;fixedSize=1;" vertex="1" parent="1">
          <mxGeometry x="365.5" y="430" width="120" height="60" as="geometry" />
        </mxCell>
        <mxCell id="nLM1svQvnnnzhq0ErCaE-10" value="End" style="ellipse;whiteSpace=wrap;html=1;" vertex="1" parent="1">
          <mxGeometry x="365.5" y="560" width="120" height="80" as="geometry" />
        </mxCell>
      </root>
    </mxGraphModel>
  </diagram>
</mxfile>
